<?xml version="1.0" encoding="utf-8"?>
<!-- Generator: Adobe Illustrator 19.0.0, SVG Export Plug-In . SVG Version: 6.00 Build 0)  -->
<svg version="1.1" id="图层_1" xmlns="http://www.w3.org/2000/svg" xmlns:xlink="http://www.w3.org/1999/xlink" x="0px" y="0px"
	 viewBox="-400 260.3 40 75" style="enable-background:new -400 260.3 40 75;" xml:space="preserve">
<style type="text/css">
	.st0{fill:#1396DB;}
	.st1{fill:#1296DB;}
</style>
<title>icon_tyrz</title>
<desc>Created with Sketch.</desc>
<g id="Page-1">
	<g id="业务能力总览" transform="translate(-831.000000, -319.000000)">
		<g id="icon_tyrz" transform="translate(831.000000, 319.000000)">
			<path id="Shape-Copy-6" class="st0" d="M-365.6,260.3h-28.7c-3.1,0-5.6,2.5-5.6,5.6v63.6c0,3.1,2.5,5.6,5.6,5.6h28.7
				c3.1,0,5.6-2.5,5.6-5.6v-63.6C-360,262.8-362.5,260.3-365.6,260.3z M-383.9,265.3h7.8c0.7,0,1.2,0.6,1.2,1.2
				c0,0.7-0.6,1.2-1.2,1.2h-7.8c-0.7,0-1.2-0.6-1.2-1.2C-385.1,265.8-384.6,265.3-383.9,265.3z M-380,332.6c-2.1,0-3.7-1.7-3.7-3.7
				c0-2.1,1.7-3.7,3.7-3.7c2.1,0,3.7,1.7,3.7,3.7C-376.3,331-377.9,332.6-380,332.6z M-362.6,322.8h-34.9v-50.1h34.9L-362.6,322.8
				L-362.6,322.8z"/>
		</g>
	</g>
</g>
<path class="st1" d="M-384.8,287.1h2.7c0.3,0,0.5,0.2,0.5,0.5v0.8c0,0.3,0.2,0.5,0.5,0.5h1.6c0.3,0,0.5-0.2,0.5-0.5v-0.8
	c0-0.3,0.2-0.5,0.5-0.5h2.7c0.3,0,0.5-0.2,0.5-0.5v-1.1c0-0.3-0.2-0.5-0.5-0.5h-9.1c-0.3,0-0.5,0.2-0.5,0.5v1.1
	C-385.3,286.9-385.1,287.1-384.8,287.1L-384.8,287.1z"/>
<path class="st1" d="M-366.5,293.8h-1.1c-0.3,0-0.5,0.2-0.5,0.5v0.5c0,0.3-0.2,0.5-0.5,0.5h-1.1c-0.3,0-0.5-0.2-0.5-0.5v-1.1
	c0-0.3-0.2-0.5-0.5-0.5h-1.9c-0.3,0-0.6-0.2-0.8-0.4l-1.6-1.8c-0.2-0.2-0.6-0.4-0.8-0.4h-9.2c-0.3,0-0.6,0.2-0.8,0.4l-2.3,2.8
	c-0.2,0.2-0.5,0.4-0.8,0.4h-0.5c-0.3,0-0.5,0.2-0.5,0.5v2.4c0,0.3-0.2,0.5-0.5,0.5h-1c-0.3,0-0.5-0.2-0.5-0.5v-2.7
	c0-0.3-0.2-0.5-0.5-0.5h-1.1c-0.3,0-0.5,0.2-0.5,0.5v9.1c0,0.3,0.2,0.5,0.5,0.5h1.1c0.3,0,0.5-0.2,0.5-0.5v-2.7
	c0-0.3,0.2-0.5,0.5-0.5h1c0.3,0,0.5,0.2,0.5,0.5v2.4c0,0.3,0.2,0.5,0.5,0.5h1.4c0.3,0,0.6,0.2,0.8,0.4l2.5,2.6
	c0.2,0.2,0.6,0.4,0.8,0.4h9.8c0.3,0,0.6-0.2,0.8-0.4l2.7-3c0.2-0.2,0.6-0.4,0.8-0.4h1.1c0.3,0,0.5,0.2,0.5,0.4
	c0,0.2,0.2,0.4,0.5,0.4h1.1c0.3,0,0.5-0.2,0.5-0.5v-9.1C-366,294-366.2,293.8-366.5,293.8L-366.5,293.8z M-376.5,299.7l-4.5,4.1
	c-0.4,0.4-0.6,0.3-0.3-0.2l0.6-1.2c0.3-0.5,0.1-1.2-0.4-1.4l-0.9-0.5c-0.5-0.3-0.9-1-0.8-1.6l0.3-3.7c0-0.6,0.6-1,1.1-1h3.6
	c0.6,0,0.8,0.4,0.5,0.9l-1.7,3.1c-0.3,0.5,0,0.9,0.5,0.9h1.7C-376.2,299-376.1,299.3-376.5,299.7L-376.5,299.7z"/>
</svg>
