<?xml version="1.0" encoding="utf-8"?>
<!-- Generator: Adobe Illustrator 21.0.0, SVG Export Plug-In . SVG Version: 6.00 Build 0)  -->
<svg version="1.1" id="图层_1" xmlns="http://www.w3.org/2000/svg" xmlns:xlink="http://www.w3.org/1999/xlink" x="0px" y="0px"
	 viewBox="0 0 40 75" style="enable-background:new 0 0 40 75;" xml:space="preserve">
<style type="text/css">
	.st0{fill:#61C6CF;}
	.st1{fill-rule:evenodd;clip-rule:evenodd;fill:#61C6CF;}
</style>
<title>icon_llzc</title>
<desc>Created with Sketch.</desc>
<path id="Shape-Copy-4" class="st0" d="M34.4,0H5.7C2.6,0,0.1,2.5,0.1,5.6v63.6c0,3.1,2.5,5.6,5.6,5.6h28.7c3.1,0,5.6-2.5,5.6-5.6
	V5.6C40,2.5,37.5,0,34.4,0z M16.1,5h7.8c0.7,0,1.2,0.6,1.2,1.2c0,0.7-0.6,1.2-1.2,1.2h-7.8c-0.7,0-1.2-0.6-1.2-1.2
	C14.9,5.5,15.4,5,16.1,5z M20,72.3c-2.1,0-3.7-1.7-3.7-3.7c0-2.1,1.7-3.7,3.7-3.7c2.1,0,3.7,1.7,3.7,3.7
	C23.7,70.7,22.1,72.3,20,72.3z M37.4,62.5H2.5V12.4h34.9V62.5L37.4,62.5z"/>
<g>
	<path class="st1" d="M33.1,46.9l-5-5c-0.6-0.6-1.6-0.7-2.3-0.3l-0.9-0.9c1.4-1.8,2.3-4.1,2.3-6.5c0-5.9-4.7-10.6-10.6-10.6
		C10.7,23.5,6,28.3,6,34.1c0,5.8,4.7,10.6,10.6,10.6c2.5,0,4.8-0.9,6.5-2.3l0.9,0.9c-0.4,0.7-0.3,1.7,0.3,2.3l5,5
		c0.8,0.8,2,0.8,2.8,0l0.9-0.9C33.9,49,33.9,47.7,33.1,46.9L33.1,46.9z M8,34.1c0-4.8,3.9-8.6,8.6-8.6c4.8,0,8.6,3.9,8.6,8.6
		c0,4.8-3.9,8.6-8.6,8.6C11.8,42.7,8,38.9,8,34.1L8,34.1z M18.7,39.4c-4.2,0-7.6-3.4-7.6-7.6c0-0.1,0-0.2,0-0.3
		c-0.6,0.9-0.9,2-0.9,3.1c0,3.3,2.6,5.9,5.9,5.9c1.3,0,2.4-0.4,3.4-1.1C19.3,39.3,19,39.4,18.7,39.4L18.7,39.4z"/>
</g>
</svg>
