<?xml version="1.0" encoding="UTF-8"?>
<svg width="40px" height="75px" viewBox="0 0 40 75" version="1.1" xmlns="http://www.w3.org/2000/svg" xmlns:xlink="http://www.w3.org/1999/xlink">
    <!-- Generator: Sketch 42 (36781) - http://www.bohemiancoding.com/sketch -->
    <title>icon_tyrz</title>
    <desc>Created with Sketch.</desc>
    <defs></defs>
    <g id="Page-1" stroke="none" stroke-width="1" fill="none" fill-rule="evenodd">
        <g id="业务能力总览" transform="translate(-831.000000, -319.000000)" fill="#1396DB">
            <g id="icon_tyrz" transform="translate(831.000000, 319.000000)">
                <path d="M34.3547295,0 L5.64604213,0 C2.5274132,0 0,2.5276704 0,5.64544201 L0,69.2059396 C0,72.3236255 2.5274132,74.8511244 5.64604213,74.8511244 L34.3548152,74.8511244 C37.4725011,74.8511244 40,72.3237112 40,69.2059396 L40,5.64544201 C39.9999143,2.52775611 37.4725011,0 34.3547295,0 Z M16.0995705,4.97903827 L23.9001723,4.97903827 C24.5877522,4.97903827 25.1450176,5.5363037 25.1450176,6.22379785 C25.1450176,6.91129201 24.5877522,7.46855744 23.9001723,7.46855744 L16.0995705,7.46855744 C15.4119906,7.46855744 14.8547252,6.91137772 14.8547252,6.22379785 C14.8547252,5.53621799 15.4120764,4.97903827 16.0995705,4.97903827 Z M19.999657,72.361691 C17.9375177,72.361691 16.2653784,70.6898947 16.2653784,68.6272409 C16.2653784,66.5647586 17.9375177,64.8929622 19.999657,64.8929622 C22.0623108,64.8929622 23.7344501,66.5647586 23.7344501,68.6272409 C23.7343644,70.6898947 22.0623108,72.361691 19.999657,72.361691 Z M37.4267196,62.5698511 L2.57310895,62.5698511 L2.57310895,12.4475956 L37.4268053,12.4475956 L37.4268053,62.5698511 L37.4267196,62.5698511 Z" id="Shape-Copy-6" fill-rule="nonzero"></path>
                <text id="认" font-family="PingFangSC-Light, PingFang SC" font-size="20" font-weight="300" letter-spacing="-0.602941096">
                    <tspan x="11" y="43">认</tspan>
                </text>
            </g>
        </g>
    </g>
</svg>