<?xml version="1.0" encoding="UTF-8"?>
<svg width="40px" height="75px" viewBox="0 0 40 75" version="1.1" xmlns="http://www.w3.org/2000/svg" xmlns:xlink="http://www.w3.org/1999/xlink">
    <!-- Generator: Sketch 42 (36781) - http://www.bohemiancoding.com/sketch -->
    <title>icon_wzjxfw</title>
    <desc>Created with Sketch.</desc>
    <defs></defs>
    <g id="Page-1" stroke="none" stroke-width="1" fill="none" fill-rule="evenodd">
        <g id="业务能力总览" transform="translate(-1105.000000, -166.000000)" fill-rule="nonzero" fill="#61C6CF">
            <g id="icon_wzjxfw" transform="translate(1105.000000, 166.000000)">
                <path d="M34.3547295,0 L5.64604213,0 C2.5274132,0 0,2.5276704 0,5.64544201 L0,69.2059396 C0,72.3236255 2.5274132,74.8511244 5.64604213,74.8511244 L34.3548152,74.8511244 C37.4725011,74.8511244 40,72.3237112 40,69.2059396 L40,5.64544201 C39.9999143,2.52775611 37.4725011,0 34.3547295,0 Z M16.0995705,4.97903827 L23.9001723,4.97903827 C24.5877522,4.97903827 25.1450176,5.5363037 25.1450176,6.22379785 C25.1450176,6.91129201 24.5877522,7.46855744 23.9001723,7.46855744 L16.0995705,7.46855744 C15.4119906,7.46855744 14.8547252,6.91137772 14.8547252,6.22379785 C14.8547252,5.53621799 15.4120764,4.97903827 16.0995705,4.97903827 Z M19.999657,72.361691 C17.9375177,72.361691 16.2653784,70.6898947 16.2653784,68.6272409 C16.2653784,66.5647586 17.9375177,64.8929622 19.999657,64.8929622 C22.0623108,64.8929622 23.7344501,66.5647586 23.7344501,68.6272409 C23.7343644,70.6898947 22.0623108,72.361691 19.999657,72.361691 Z M37.4267196,62.5698511 L2.57310895,62.5698511 L2.57310895,12.4475956 L37.4268053,12.4475956 L37.4268053,62.5698511 L37.4267196,62.5698511 Z" id="Shape-Copy-3"></path>
                <path d="M25.0307394,45.7977163 C25.0307394,45.8061112 25.0298066,45.8132059 25.0298066,45.8211203 C25.0633296,45.066852 24.2709876,44.3285821 22.8178235,43.9216984 C22.4803036,43.8270369 22.1263049,43.7562315 21.7650985,43.7077559 L21.1779083,33.6641025 C21.8153547,33.3578445 22.2546591,32.7061522 22.2546591,31.9519405 C22.2546591,30.9037945 21.4057858,30.0539601 20.3565092,30.0539601 C19.3085328,30.0539601 18.4590095,30.9037945 18.4590095,31.9519405 C18.4590095,32.7659057 18.971013,33.4594594 19.6903167,33.729707 L19.3031624,43.716603 C18.2403183,43.8653085 17.2886995,44.2014151 16.6847478,44.6953851 C16.2600003,45.0427132 16.0618299,45.4235642 16.0675114,45.7982251 C16.0675114,45.7941266 16.0665786,45.7889257 16.0665786,45.7847989 C16.0675114,46.0927812 16.0675114,46.4013853 16.0694334,46.71047 C16.0694334,46.7449257 16.0710163,46.7798621 16.0748039,46.8147701 C16.0760758,46.8213843 16.0760758,46.8274049 16.0766977,46.8330862 C16.0805135,46.8670615 16.0871277,46.9000758 16.0937701,46.9337401 C16.0956639,46.9402129 16.0969359,46.9467141 16.0988297,46.9531869 C16.1067158,46.9873035 16.1159021,47.0212788 16.1272649,47.0552541 C16.1291587,47.0576284 16.1294979,47.0600027 16.1298088,47.0623487 C16.1411716,47.0944302 16.1551066,47.1276423 16.168985,47.1601761 C16.1718398,47.1658575 16.1737053,47.170917 16.1759383,47.1764571 C16.1914279,47.2086799 16.2091221,47.2412419 16.2271274,47.2739452 C16.2306041,47.280418 16.2343916,47.2868909 16.2391403,47.293081 C16.2574564,47.3256148 16.2786273,47.3587986 16.3004484,47.3908801 C16.3033032,47.3941872 16.3051688,47.3978334 16.3086737,47.4011405 C16.3301838,47.4324306 16.3535595,47.4626182 16.378829,47.4934278 C16.3816838,47.4976959 16.3854714,47.5022749 16.388298,47.5060625 C16.4151786,47.5376635 16.4433029,47.5689818 16.47236,47.5997631 C16.4786915,47.6057837 16.4837227,47.611776 16.4897433,47.6174574 C16.5197614,47.6486061 16.5504013,47.6794156 16.5829633,47.7092641 C16.5886448,47.7133909 16.5930825,47.7171785 16.59687,47.7214466 C16.6303931,47.7506733 16.6645097,47.7796173 16.6995873,47.808533 C16.7027531,47.810879 16.7062298,47.8137622 16.7097064,47.8168996 C16.746056,47.8462959 16.7861932,47.8756922 16.8253694,47.9041274 C16.8339056,47.9096392 16.8411699,47.9148683 16.8484341,47.9199561 C16.8888823,47.9479108 16.9299805,47.9758938 16.9735943,48.0038485 C16.9799259,48.0076643 16.9871618,48.0122434 16.9938325,48.0164832 C17.0380682,48.0439857 17.082954,48.0710076 17.1306664,48.0980296 C17.1322493,48.0989906 17.134454,48.0999234 17.135726,48.1008844 C17.1834384,48.1279063 17.2336946,48.1539955 17.2849119,48.1805369 C17.2937591,48.1847768 17.3026062,48.1889036 17.3104923,48.1936522 C17.3613705,48.2187803 17.4125595,48.2429474 17.4659815,48.2672841 C17.4754788,48.2713826 17.484015,48.2751702 17.4919011,48.279297 C17.6113799,48.3311079 17.734618,48.3813642 17.8667316,48.4280025 C17.872413,48.4308573 17.8787445,48.4332316 17.8853869,48.4350972 C17.9514154,48.4578793 18.0200161,48.4807744 18.0892103,48.5025955 C18.0961637,48.504461 18.1006014,48.5063831 18.1056609,48.5082769 C18.1119924,48.5100294 18.1170237,48.5114144 18.1221115,48.5128559 C18.1745725,48.5286564 18.2273444,48.545107 18.2826603,48.5594659 C18.3515719,48.5800151 18.422349,48.5977093 18.4921934,48.6154036 C18.4950482,48.6154036 18.4969137,48.6163646 18.4988075,48.6168452 C18.5601157,48.6321651 18.6214238,48.646722 18.6821101,48.6596676 C18.7010763,48.6634552 18.7178096,48.6667905 18.7355322,48.6704085 C18.7775631,48.6792557 18.8186331,48.6881311 18.8603814,48.6964977 C18.8651018,48.6974305 18.8682675,48.697911 18.8730162,48.6983915 C18.9731895,48.7184601 19.0743522,48.7356739 19.1754584,48.7509939 C19.1858884,48.7524354 19.1953856,48.7543009 19.2054764,48.756223 C19.2174893,48.7581168 19.2285412,48.7585973 19.240865,48.7603498 C19.3404165,48.7748783 19.4405899,48.7878523 19.5423744,48.7990454 C19.5426853,48.799526 19.5442682,48.799526 19.5442682,48.799526 C19.5512216,48.800487 19.5575531,48.8009675 19.5623017,48.8014198 C19.6580656,48.8116802 19.7547624,48.8196228 19.8502154,48.8270284 C19.864433,48.8284417 19.876135,48.8298832 19.8894198,48.8303355 C19.8970232,48.8312683 19.9064922,48.8312683 19.9153394,48.8322293 C20.0171239,48.8387021 20.119502,48.8437334 20.2206364,48.8470688 C20.2279007,48.8475493 20.2354759,48.8480015 20.2408746,48.848482 C20.2531984,48.8489625 20.2636284,48.848482 20.2749912,48.8489625 C20.3849728,48.851676 20.4965372,48.8535416 20.6074798,48.8526088 L20.6119175,48.8526088 L20.6125111,48.8526088 C20.6201145,48.8526088 20.6260786,48.851676 20.6327492,48.851676 C20.6949901,48.851676 20.7572593,48.8504041 20.8192176,48.8485103 C20.847031,48.8475775 20.8748443,48.846136 20.9020359,48.8456555 C20.9374244,48.8437617 20.973774,48.8428006 21.0101236,48.8405959 C21.015805,48.8401154 21.0202144,48.8391544 21.0259241,48.8391544 C21.0783851,48.8372888 21.1283305,48.8329924 21.1798304,48.829855 C21.2016232,48.8284134 21.225649,48.8270001 21.2471591,48.8255869 C21.3214412,48.8195945 21.3944231,48.8131217 21.4671223,48.8059988 L21.4677441,48.8059988 C21.5555937,48.7966711 21.6402775,48.786552 21.7262615,48.7758393 C21.7496655,48.7720235 21.7730411,48.7682359 21.7970669,48.7655789 C21.8631237,48.7562513 21.9285303,48.7469236 21.9930325,48.7361827 C22.007561,48.7333279 22.0214677,48.7316036 22.0353744,48.7292294 C22.0429779,48.7277878 22.050553,48.7259223 22.0574781,48.7249612 C22.1361696,48.7115351 22.2145785,48.6974588 22.291998,48.6812061 C22.29327,48.6812061 22.2957856,48.6812061 22.2964075,48.680245 C22.3716223,48.6649251 22.4455652,48.6489832 22.5182927,48.631289 C22.5423184,48.6262012 22.5641112,48.6200675 22.5878261,48.6145275 C22.6409089,48.6014122 22.6927481,48.5884383 22.7452091,48.5743903 C22.7692349,48.5674369 22.7938825,48.5614163 22.81788,48.5539825 C22.8728567,48.5384929 22.9272115,48.5231729 22.9797007,48.5059592 C22.997395,48.50073 23.0154285,48.4952183 23.0340556,48.4901304 C23.1039282,48.467207 23.1728115,48.4440009 23.240112,48.4191837 C23.2540187,48.4141242 23.2679253,48.4084428 23.2818603,48.4038637 C23.3349431,48.3842757 23.3874041,48.3632178 23.440487,48.3422164 C23.4604142,48.3338498 23.4815852,48.3254549 23.5018234,48.316636 C23.5476419,48.2975002 23.5921886,48.2774316 23.6361416,48.2575326 C23.6557014,48.2482049 23.6753178,48.2398101 23.6939731,48.2312738 C23.748017,48.2052129 23.8017499,48.1791238 23.8525998,48.1525824 C23.8586203,48.1487948 23.8646409,48.1461095 23.8706332,48.1427742 L23.8741099,48.1418414 C23.9344853,48.1088272 23.9923168,48.0756151 24.0498373,48.0421486 C24.065016,48.0323404 24.0798837,48.0225605 24.0947231,48.0132328 C24.1367541,47.9866914 24.1768913,47.9606305 24.2160675,47.9336085 C24.2268367,47.9274466 24.2375776,47.9209738 24.2458029,47.9144727 C24.2571657,47.9065866 24.2672848,47.8989832 24.2774039,47.8910971 C24.2878056,47.8841437 24.2982357,47.8771904 24.307422,47.8700957 C24.3447043,47.8430737 24.3810539,47.8147799 24.4155097,47.7858641 C24.4417402,47.7648628 24.4657377,47.7443137 24.4901027,47.7228318 C24.4901027,47.7223513 24.4910355,47.721899 24.4910355,47.721899 C24.5204317,47.6953576 24.5488952,47.6702294 24.5751257,47.6432075 C24.583351,47.6362542 24.5903043,47.6283681 24.5985014,47.6204254 C24.6178068,47.6008656 24.6364339,47.580797 24.6550892,47.5607002 C24.659216,47.5564603 24.6639363,47.5514008 24.6693068,47.5471327 C24.6712006,47.5434864 24.6737162,47.5406598 24.6765711,47.5373245 C24.6933326,47.5178777 24.7110268,47.4978374 24.7268273,47.4782211 C24.7315759,47.4717482 24.7369181,47.4660386 24.7419777,47.4600463 C24.7622159,47.4349181 24.7811821,47.4091399 24.7976045,47.38404 C24.7992156,47.3821745 24.8001484,47.3807329 24.8023531,47.3792914 C24.8071017,47.3737796 24.8099565,47.3677873 24.8134332,47.3615971 C24.8257853,47.3439028 24.8380808,47.325728 24.8485108,47.3080337 C24.8541922,47.2982256 24.8601845,47.2893784 24.8649332,47.2795703 C24.8756741,47.2637698 24.8842386,47.2474888 24.8930575,47.2307273 C24.8956014,47.2264874 24.8984279,47.2213996 24.9012828,47.2157182 C24.9041376,47.2111392 24.9056922,47.2068711 24.9088862,47.2018398 C24.9170833,47.1853892 24.9240366,47.1691365 24.9319227,47.1523749 C24.9357386,47.1435278 24.9404872,47.1341719 24.9445575,47.125353 C24.95185,47.1066977 24.9591143,47.0875901 24.9663503,47.0684543 C24.9676222,47.0633948 24.9701661,47.0577134 24.9720599,47.0521733 C24.9720599,47.0503078 24.9733036,47.0493185 24.9733036,47.0479335 C24.9821507,47.022777 24.9897542,46.9971967 24.9973576,46.9706553 C24.9992232,46.9649738 24.9998733,46.9580205 25.0014562,46.9520282 C25.006544,46.9324401 25.0112643,46.9128238 25.0140909,46.8927552 C25.0153629,46.8899003 25.0159847,46.8867346 25.0169457,46.8834275 C25.0175676,46.8779157 25.0175676,46.8722343 25.0191787,46.866666 C25.0213834,46.8480389 25.025171,46.8293836 25.026443,46.8112088 C25.0277149,46.8023617 25.0283368,46.793034 25.0299197,46.7832541 C25.0308524,46.763666 25.0321244,46.7435974 25.0327745,46.7230483 L25.0327745,46.7072196 L25.0327745,46.6974114 C25.0327745,46.3880159 25.0321526,46.0803445 25.0318417,45.772221 C25.0317004,45.7805026 25.0307394,45.7888974 25.0307394,45.7977163 Z M16.0813391,45.9661151 C16.0790878,45.9508684 16.0768366,45.9356932 16.0744829,45.9213054 C16.0722316,45.9036966 16.0722316,45.8860876 16.0722316,45.8696241 C16.0733572,45.9011912 16.0768365,45.9356932 16.081339,45.9696225 C16.0813391,45.9696941 16.0813391,45.9672604 16.0813391,45.9661151 Z M16.0979818,46.0490778 C16.0945026,46.0306583 16.0922513,46.0140807 16.0898977,45.9935123 C16.0945026,46.0158204 16.0945026,46.0376168 16.0991075,46.0575713 L16.0979818,46.0490778 Z M16.1344219,46.1562263 C16.1321706,46.1484843 16.1299194,46.1437839 16.1264401,46.1377009 C16.1264401,46.1335534 16.1264401,46.1319866 16.1253145,46.1273783 C16.1390268,46.1624013 16.1527391,46.194383 16.1665537,46.2273783 C16.157344,46.2014797 16.145883,46.180466 16.1344219,46.1562263 Z M16.1912003,46.2723516 C16.1843441,46.2594461 16.1752367,46.2473336 16.1682782,46.2368794 C16.187721,46.2687467 16.2151456,46.3034259 16.2391933,46.3368794 C16.2209785,46.3142406 16.2049126,46.2928995 16.1912003,46.2723516 Z M16.2746374,46.4007702 C16.2609251,46.3864375 16.2459848,46.3713817 16.2357518,46.3562601 C16.2311469,46.3529728 16.2266444,46.3474501 16.2220395,46.3430451 C16.2529433,46.3757866 16.2849728,46.4092515 16.3158767,46.4430451 C16.3043133,46.4287124 16.2859961,46.4147742 16.2746374,46.4007702 Z M16.3458767,46.5102858 C16.3399422,46.5036931 16.3300219,46.495338 16.3221388,46.4876357 C16.3102699,46.4737323 16.2993753,46.4595025 16.2874179,46.4489281 C16.3201016,46.481043 16.3537597,46.5157035 16.3874179,46.5489281 C16.3736003,46.5361344 16.3577456,46.5230143 16.3458767,46.5102858 Z M16.4263818,46.61932 C16.4173574,46.6082969 16.4073574,46.5986599 16.3963818,46.5886929 C16.3863818,46.5768777 16.3754875,46.5647325 16.3654875,46.5529173 C16.3963818,46.5842704 16.4309346,46.6203761 16.4654875,46.6529173 C16.4519102,46.6411021 16.4382517,46.6300131 16.4263818,46.61932 Z M16.5418813,46.7462234 C16.5262124,46.7309893 16.5104696,46.7149865 16.4964268,46.7001717 C16.481497,46.6861256 16.469967,46.6712409 16.4542981,46.6564261 C16.4873358,46.6896196 16.5195605,46.7244205 16.5542981,46.7564261 C16.5493462,46.752932 16.5469072,46.7493681 16.5418813,46.7462234 Z M16.6231261,46.8300509 C16.60023,46.8058876 16.5815795,46.7830305 16.5570154,46.7597652 C16.5917387,46.7935611 16.6214582,46.8273571 16.6570154,46.8597652 C16.6435203,46.8501326 16.6350291,46.8391938 16.6231261,46.8300509 Z M16.7414394,46.9242643 C16.7208709,46.9059471 16.7003025,46.8853787 16.6796317,46.8670615 C16.704805,46.8887556 16.7277271,46.909324 16.7551517,46.9328601 C16.7517748,46.9294832 16.7482955,46.9259016 16.7414394,46.9242643 Z M16.8602268,47.0038835 C16.8498914,46.998767 16.8465145,46.9971297 16.8430353,46.9919108 C16.867083,47.010842 16.8957356,47.0274195 16.9209089,47.0462484 C16.900238,47.0306942 16.8807952,47.0187215 16.8602268,47.0038835 Z M17.0154722,47.1241745 C17.0013218,47.1115694 16.9883812,47.0964434 16.9754407,47.0838383 C16.9719162,47.0795526 16.9707589,47.0795526 16.9672344,47.0753509 C17.0001645,47.1086282 17.0342518,47.1406451 17.0672344,47.1753509 C17.0501908,47.1584602 17.0319372,47.1406451 17.0154722,47.1241745 Z M17.1481792,47.2001212 C17.144537,47.1959916 17.1394194,47.1919431 17.1363304,47.1878945 C17.1275706,47.1797164 17.1198251,47.172105 17.1126328,47.1625504 C17.144583,47.1946151 17.1791151,47.2277325 17.2126328,47.2625504 C17.191471,47.2399593 17.1692949,47.2214168 17.1481792,47.2001212 Z M17.3294627,47.3110632 C17.3163828,47.2959704 17.3023837,47.280962 17.2874234,47.2681458 C17.2818237,47.2610631 17.2761823,47.253053 17.2687439,47.2474038 C17.3009629,47.2808777 17.3346027,47.3138456 17.3687439,47.3474038 C17.3561237,47.336021 17.3425843,47.323795 17.3294627,47.3110632 Z M17.5135313,47.4071252 C17.5020655,47.3944405 17.4862263,47.3828854 17.4730269,47.3673337 C17.4606944,47.3556048 17.4483618,47.34153 17.4368961,47.3284979 C17.4681806,47.3629027 17.5025383,47.3960044 17.5368961,47.4284979 C17.5293705,47.4217211 17.5214509,47.4158133 17.5135313,47.4071252 Z M17.6830603,47.4777238 C17.6830603,47.4777238 17.6804774,47.4761306 17.6791667,47.4745374 C17.6563062,47.4530753 17.6347565,47.4285205 17.6132453,47.4054652 C17.6460133,47.441079 17.6791667,47.4736002 17.7132453,47.5054652 C17.70461,47.4965616 17.6929678,47.4886891 17.6830603,47.4777238 Z M17.8875026,47.5258119 C17.8709798,47.5159882 17.853039,47.5040155 17.8385507,47.4920428 C17.8709798,47.5143509 17.9054434,47.5361473 17.9385507,47.5561018 C17.9219662,47.5497572 17.9054434,47.5360449 17.8875026,47.5258119 Z M18.1230159,47.5929636 C18.1169954,47.590149 18.1119358,47.5864515 18.1053216,47.5830298 C18.1625313,47.6176325 18.2200518,47.6512417 18.280088,47.6830298 C18.226355,47.6540563 18.174205,47.6246965 18.1230159,47.5929636 Z M18.4883492,47.6904829 L18.4873881,47.6887433 C18.5237377,47.7225124 18.5600873,47.7510626 18.5960978,47.7831945 C18.5600873,47.7511649 18.5237377,47.724252 18.4883492,47.6904829 Z M19.5418914,47.8733461 L19.5372865,47.8733461 C19.5624598,47.8784626 19.5876332,47.8800999 19.6151601,47.8819419 C19.5876332,47.8800999 19.5670648,47.8784626 19.5418914,47.8733461 Z M19.9352994,47.9089741 C19.9215871,47.9089741 19.9147309,47.9072345 19.9032699,47.9055972 C19.9146286,47.9073368 19.9238384,47.9089741 19.936425,47.9089741 L19.9352994,47.9089741 Z M21.1822854,47.9087916 L21.1709267,47.9087916 C21.1961,47.9054147 21.222399,47.9036751 21.2520749,47.9036751 C21.2281295,47.9036751 21.2085843,47.9054147 21.1822854,47.9087916 Z M21.840909,47.8427477 C21.8079616,47.8525714 21.7750142,47.857688 21.7432774,47.867921 C21.7773826,47.8575856 21.81033,47.8496038 21.8432774,47.8393708 C21.8432774,47.8393708 21.8432774,47.8427477 21.840909,47.8427477 Z M22.6201968,47.6923248 C22.58874,47.710642 22.5551952,47.7294708 22.5232391,47.7460484 C22.5567385,47.7277312 22.5917813,47.7089024 22.6232381,47.6887433 C22.6232835,47.6888456 22.6217402,47.6904829 22.6201968,47.6923248 Z M22.7475727,47.6783724 C22.7446563,47.680112 22.7432304,47.680112 22.7432304,47.680112 C22.777968,47.6670137 22.8069375,47.653199 22.8432304,47.6366215 C22.8113445,47.6498221 22.7793938,47.6651717 22.7475727,47.6783724 Z M24.1240293,47.0875051 C24.1125683,47.0959985 24.0965024,47.1045943 24.0816644,47.1144181 L24.1263829,47.0875051 L24.1240293,47.0875051 Z M24.4932981,46.8010864 C24.468396,46.8268403 24.4407838,46.8538074 24.4135029,46.8793533 C24.4495161,46.8462163 24.482187,46.8124902 24.5135029,46.7793533 C24.5067579,46.7863204 24.5010367,46.7937034 24.4932981,46.8010864 Z M24.6310914,46.7037539 C24.6186609,46.7177341 24.6056745,46.7314013 24.5926376,46.7451206 C24.5779838,46.75884 24.5638352,46.7725593 24.5496867,46.7856527 C24.5830368,46.7518499 24.6180545,46.7185687 24.6496867,46.6856527 C24.6435219,46.6909214 24.6373066,46.6979115 24.6310914,46.7037539 Z M24.7045871,46.6290522 C24.6907513,46.6440547 24.6756219,46.6579146 24.6630797,46.6709797 C24.6555432,46.6767919 24.6504813,46.6832002 24.644857,46.6873731 C24.6782091,46.6553811 24.7134172,46.6209549 24.744857,46.5873731 C24.7328773,46.6020776 24.7190415,46.6159375 24.7045871,46.6290522 Z M24.7544224,46.5585235 C24.7442456,46.5665581 24.7340689,46.5746339 24.7274807,46.5829158 C24.7274807,46.5829158 24.7274807,46.5843166 24.7244813,46.5843166 C24.7597786,46.5516014 24.7945402,46.5184328 24.8244813,46.4843166 C24.8011283,46.5087501 24.7783645,46.5334308 24.7544224,46.5585235 Z M24.8866803,46.3841912 C24.8670901,46.4048172 24.845351,46.4254762 24.8241117,46.4466624 C24.8157159,46.455328 24.80732,46.4641583 24.7978748,46.4728238 L24.7956259,46.4739111 C24.831408,46.4407645 24.8637918,46.4070578 24.8956259,46.3739111 C24.8916778,46.377206 24.8888792,46.3803032 24.8866803,46.3841912 Z M24.9641635,46.2787481 C24.9498981,46.2919218 24.9379747,46.3048559 24.92449,46.3182691 C24.9070308,46.3365525 24.88872,46.3543968 24.8689187,46.3727202 C24.9038371,46.3392272 24.9379747,46.3062132 24.9689187,46.2727202 C24.9649442,46.2747561 24.9649442,46.276792 24.9641635,46.2787481 Z M24.9910485,46.213278 C24.9773362,46.2276759 24.9601447,46.240634 24.9453067,46.2542466 C24.9385529,46.2620564 24.9293431,46.2693862 24.9236126,46.2757126 C24.9601446,46.2427719 24.9934021,46.2096131 25.0208267,46.1757126 C25.0116169,46.1881471 25.0002582,46.2003635 24.9910485,46.213278 Z M24.9912485,46.1428808 C24.9832667,46.1519037 24.972829,46.1618328 24.9648472,46.1701858 L24.9637216,46.1728257 C24.9934998,46.1382315 25.0231757,46.1065136 25.0460977,46.0728257 C25.0301341,46.0961905 25.0141706,46.1195554 24.9912485,46.1428808 Z M25.0595003,45.9684851 C25.0481416,45.991537 25.0319734,46.0140371 25.0137585,46.0365371 C25.0057767,46.0434526 25.0046511,46.0508877 24.9977949,46.0579656 C24.9977949,46.0588747 24.9977949,46.0599786 24.994418,46.0604981 C25.0253218,46.0272838 25.0446623,45.9936799 25.0652308,45.9604981 C25.0618539,45.9630305 25.0618539,45.9663098 25.0595003,45.9684851 Z M25.0499413,45.8591948 C25.0453364,45.8716105 25.0441085,45.8847005 25.0407315,45.8970766 C25.0384802,45.917267 25.0270192,45.937021 25.0190374,45.9565371 C25.0338753,45.9232566 25.0441084,45.8897779 25.0499412,45.8565371 C25.0499413,45.8571718 25.0499413,45.8578461 25.0499413,45.8591948 Z M25.3774173,32.1911525 C25.3157982,33.545076 24.5882692,34.730395 23.4896974,35.5106959 L24.2425241,36.2210111 C25.498168,35.2632304 26.3236657,33.8462462 26.3954038,32.2363492 C26.4819814,30.3094249 25.4697328,28.5622135 23.8667608,27.4982388 L23.0981619,28.216751 C24.5310879,29.0731147 25.4504274,30.5531311 25.3774173,32.1911525 Z M12.7114204,31.6918119 C12.8043295,29.6084656 13.9446214,27.7886963 15.6581968,26.6185559 L14.8510153,25.9436575 C13.011347,27.2931434 11.7961511,29.3275336 11.6925011,31.6461629 C11.5882009,33.9720565 12.6248145,36.1138844 14.3475762,37.622647 L15.1120766,36.938421 C13.55905,35.6230518 12.6191331,33.7394587 12.7114204,31.6918119 Z M9.94887938,31.4854728 C10.0686691,28.8104705 11.4390149,26.4521844 13.5308975,24.8384715 L12.7335241,24.1708375 C10.5104891,25.9588645 9.05986891,28.5303016 8.92964916,31.4397956 C8.79247607,34.512354 10.1546249,37.3410931 12.4228566,39.3444759 L13.1879789,38.6602499 C11.0885494,36.8502605 9.82405835,34.2792474 9.94887938,31.4854728 Z M16.9457526,35.2991277 C15.8604656,34.420519 15.1999262,33.1367507 15.2618844,31.7389024 C15.328563,30.2372345 16.2166408,28.9419339 17.5215799,28.1780553 L16.7004917,27.4908331 C15.275141,28.4440349 14.3200737,29.9561328 14.2429651,31.6932534 C14.1677503,33.3708184 14.9262301,34.910871 16.1796693,35.9843147 L16.9457526,35.2991277 Z M25.5572714,25.9186707 L24.7971805,26.6289859 C26.7335738,27.9397761 27.9512852,30.0484201 27.8479461,32.3681518 C27.7600965,34.3036124 26.771167,36.0094146 25.2586168,37.1798943 L26.0066949,37.8860827 C27.67725,36.5404127 28.7679074,34.6041607 28.8659044,32.4139704 C28.9828393,29.8055336 27.6658872,27.4312775 25.5572714,25.9186707 Z M27.6074339,24 L26.8511305,24.7072908 C29.3482007,26.5232442 30.8989944,29.3342891 30.7611994,32.4152141 C30.6427099,35.0729744 29.2881363,37.4170428 27.2186967,39.0302752 L27.9677075,39.7364636 C30.1961413,37.9489454 31.6496163,35.3746252 31.7798078,32.4613436 C31.9299266,29.0927027 30.2798923,26.0157066 27.6074339,24 Z" id="Shape"></path>
            </g>
        </g>
    </g>
</svg>