<?xml version="1.0" encoding="utf-8"?>
<!-- Generator: Adobe Illustrator 21.0.0, SVG Export Plug-In . SVG Version: 6.00 Build 0)  -->
<svg version="1.1" id="图层_1" xmlns="http://www.w3.org/2000/svg" xmlns:xlink="http://www.w3.org/1999/xlink" x="0px" y="0px"
	 viewBox="0 0 40 75" style="enable-background:new 0 0 40 75;" xml:space="preserve">
<style type="text/css">
	.st0{fill:#61C6CF;}
</style>
<title>icon_tyrz</title>
<desc>Created with Sketch.</desc>
<path id="Shape-Copy-6" class="st0" d="M34.4,0H5.7C2.6,0,0.1,2.5,0.1,5.6v63.6c0,3.1,2.5,5.6,5.6,5.6h28.7c3.1,0,5.6-2.5,5.6-5.6
	V5.6C40,2.5,37.5,0,34.4,0z M16.1,5h7.8c0.7,0,1.2,0.6,1.2,1.2c0,0.7-0.6,1.2-1.2,1.2h-7.8c-0.7,0-1.2-0.6-1.2-1.2
	C14.9,5.5,15.4,5,16.1,5z M20,72.3c-2.1,0-3.7-1.7-3.7-3.7c0-2.1,1.7-3.7,3.7-3.7c2.1,0,3.7,1.7,3.7,3.7
	C23.7,70.7,22.1,72.3,20,72.3z M37.4,62.5H2.5V12.4h34.9V62.5L37.4,62.5z"/>
<path id="Shape" class="st0" d="M9.4,30.3c0-0.5,0-1.1,0.1-1.6c0.1-0.7,0.6-1.2,1.3-1.3c0.6,0,1.2,0,1.8-0.1c2.4-0.3,4.6-1,6.6-2.3
	c0.4-0.3,0.8-0.3,1.3-0.2c0.1,0,0.2,0.1,0.4,0.2c1.8,1.1,3.8,1.9,5.9,2.2c0.8,0.1,1.6,0.2,2.4,0.2c0.9,0,1.4,0.6,1.5,1.4
	c0.1,1.1,0.1,2.3,0,3.4c-0.4,3.9-1.7,7.5-4.2,10.5c-1.6,1.9-3.5,3.3-5.7,4.3c-0.4,0.2-0.8,0.2-1.3,0c-2-0.9-3.7-2.2-5.2-3.8
	c-1.9-2.1-3.2-4.6-4-7.3C9.7,34,9.5,32.1,9.4,30.3L9.4,30.3L9.4,30.3z M10.9,28.8c0,0.3,0,0.5,0,0.8c0,1.3,0,2.6,0.3,3.9
	c0.3,2.1,1,4,2,5.9c1.6,2.8,3.8,5,6.8,6.3c0.1,0,0.2,0,0.3,0c2.7-1.2,4.8-3.1,6.3-5.6c2.1-3.3,2.9-7,2.7-10.9c0-0.1,0-0.2,0-0.4
	c-0.1,0-0.1,0-0.1,0c-0.9,0-1.8-0.1-2.7-0.2c-2.2-0.4-4.3-1.2-6.2-2.4c-0.1-0.1-0.1-0.1-0.2,0c-0.4,0.2-0.7,0.4-1.1,0.6
	c-2.1,1.1-4.4,1.8-6.8,2C11.7,28.8,11.3,28.8,10.9,28.8L10.9,28.8L10.9,28.8z M18.7,37.7c0.1-0.1,0.1-0.1,0.1-0.1
	c1.7-1.7,3.3-3.3,5-5c0.2-0.2,0.4-0.3,0.7-0.3c0.3,0,0.5,0.2,0.6,0.5c0.1,0.3,0,0.5-0.1,0.7c0,0-0.1,0.1-0.1,0.1
	c-1.8,1.8-3.6,3.6-5.5,5.5c-0.4,0.4-0.8,0.4-1.2,0c-0.9-0.9-1.8-1.8-2.7-2.7c-0.3-0.3-0.3-0.7-0.1-1c0.3-0.3,0.7-0.3,1,0
	c0.4,0.4,0.9,0.9,1.3,1.3C18,37,18.3,37.3,18.7,37.7L18.7,37.7L18.7,37.7z"/>
</svg>
