<?xml version="1.0" encoding="UTF-8"?>
<svg width="158px" height="35px" viewBox="0 0 158 35" version="1.1" xmlns="http://www.w3.org/2000/svg" xmlns:xlink="http://www.w3.org/1999/xlink">
    <!-- Generator: Sketch 42 (36781) - http://www.bohemiancoding.com/sketch -->
    <title>BES</title>
    <desc>Created with Sketch.</desc>
    <defs>
        <polygon id="path-1" points="55.4496923 34.6147714 55.4496923 0.61579205 0.771221368 0.61579205 0.771221368 34.6147714"></polygon>
    </defs>
    <g id="Page-1" stroke="none" stroke-width="1" fill="none" fill-rule="evenodd">
        <g id="BES" transform="translate(0.000000, -1.000000)">
            <g id="Page-1">
                <g id="Group-3" transform="translate(0.000000, 0.901662)" fill="#FFFFFF">
                    <path d="M26.0129077,6.20806154 L22.9473692,13.4579077 C23.8709077,13.4509846 31.5139846,13.4482154 32.0249077,13.4509846 C34.1350615,13.4662154 35.5667538,13.2709846 36.3199846,12.8652923 C37.0718308,12.4596 37.8569077,11.2896 38.6752154,9.35390769 C39.1058308,8.33483077 39.1681385,7.61898462 38.8662923,7.20636923 C38.5616769,6.79375385 38.0493692,6.52929231 37.3293692,6.41713846 C36.6079846,6.30498462 28.2213692,6.23575385 26.0129077,6.20806154 L26.0129077,6.20806154 Z M20.7998308,18.5339077 L16.9422923,27.6599077 C19.9912154,27.6405231 28.9261385,27.4646769 29.9022923,27.1337538 C30.8784462,26.8042154 31.6455231,25.9789846 32.2021385,24.6649846 L33.4870615,21.6229846 C34.0782923,20.2259077 34.0602923,19.3799077 33.4372154,19.0766769 C32.8127538,18.7762154 23.9858308,18.5948308 20.7998308,18.5339077 L20.7998308,18.5339077 Z M13.7895231,0.482676923 L35.2455231,0.625292308 C42.0218308,0.670984615 47.0659846,0.913292308 50.3807538,1.3536 C53.6941385,1.79390769 56.1573692,2.65375385 57.7662923,3.93590769 C59.3766,5.21806154 59.5856769,7.27006154 58.3949077,10.0877538 C57.5890615,11.9929846 56.2695231,13.3152923 54.4349077,14.0588308 C52.6016769,14.7982154 49.3686,15.3548308 44.7370615,15.7286769 C49.5222923,16.2063692 52.5836769,16.9651385 53.9184462,18.0036 C55.2559846,19.0434462 55.4747538,20.6232923 54.5775231,22.7459077 L53.2995231,25.7699077 C52.3676769,27.9742154 51.0398308,29.6025231 49.3132154,30.6548308 C47.5879846,31.7085231 45.2452154,32.4216 42.2890615,32.7912923 C39.3301385,33.1637538 33.5272154,33.3188308 24.8789077,33.2606769 L0.000138461537,33.0959077 L13.7895231,0.482676923 Z" id="Fill-1"></path>
                </g>
                <polygon id="Fill-4" fill="#FFFFFF" points="67.4094462 1.76995385 107.422062 2.00810769 104.662523 8.53656923 76.4634462 8.44103077 73.8479077 14.6247231 101.130369 14.7147231 98.5065231 20.9178 71.2254462 20.8291846 68.1931385 28.0001077 97.8239077 28.1053385 95.0643692 34.6296462 53.6200615 34.3831846"></polygon>
                <g id="Group-8" transform="translate(102.461538, 0.901662)">
                    <mask id="mask-2" fill="white">
                        <use xlink:href="#path-1"></use>
                    </mask>
                    <g id="Clip-7"></g>
                    <path d="M53.9648308,11.3340462 L33.9917538,11.1997385 L35.0136,8.7822 C35.4912923,7.65373846 35.5397538,6.93373846 35.1589846,6.6222 C34.7796,6.30927692 33.9917538,6.15004615 32.8009846,6.14173846 C31.5063692,6.13204615 30.4402154,6.33558462 29.5997538,6.74681538 C28.7592923,7.15943077 28.1597538,7.78804615 27.8011385,8.63404615 C27.3414462,9.72235385 27.3677538,10.5462 27.8814462,11.1014308 C28.3619077,11.6552769 30.1079077,12.3351231 33.1166769,13.1368154 C41.7428308,15.4408154 46.9946769,17.3183538 48.8736,18.7722 C50.7511385,20.2260462 51.0156,22.5508154 49.6656,25.7465077 C48.6825231,28.0726615 47.2688308,29.7771231 45.4245231,30.8682 C43.5788308,31.9606615 40.5243692,32.8675846 36.2583692,33.5862 C31.9909846,34.3062 27.2362154,34.6482 21.9926769,34.6122 C16.2368308,34.5734308 11.5056,34.1109692 7.80036923,33.2262 C4.09375385,32.3386615 1.89221538,31.2254308 1.19436923,29.8878923 C0.495138462,28.5503538 0.662676923,26.6589692 1.6956,24.2151231 L2.59975385,22.0800462 L22.5742154,22.2129692 L20.8960615,26.1812769 C20.3782154,27.4038923 20.3283692,28.1903538 20.7409846,28.5448154 C21.1563692,28.8978923 22.0799077,29.0778923 23.5088308,29.0875846 C24.9391385,29.0972769 26.0966769,28.8826615 26.9828308,28.4451231 C27.8662154,28.0062 28.4948308,27.3512769 28.8645231,26.4775846 C29.6759077,24.5585077 29.5429846,23.2971231 28.4657538,22.6975846 C27.3525231,22.0966615 24.4143692,21.0886615 19.6540615,19.6680462 C14.8979077,18.2363538 11.7852923,17.1978923 10.3148308,16.5554308 C8.84436923,15.9129692 7.77406154,15.0323538 7.10529231,13.9094308 C6.43513846,12.7878923 6.4656,11.3603538 7.19944615,9.6282 C8.25452308,7.12896923 9.83575385,5.3082 11.9417538,4.16312308 C14.0477538,3.01943077 17.0426769,2.13466154 20.9292923,1.50743077 C24.8131385,0.8802 29.3103692,0.583892308 34.4182154,0.618507692 C40.0037538,0.655892308 44.6131385,1.04081538 48.2449846,1.78158462 C51.8768308,2.5182 54.1046769,3.43204615 54.9243692,4.52173846 C55.7440615,5.61143077 55.6056,7.45296923 54.5103692,10.0435846 L53.9648308,11.3340462 Z" id="Fill-6" fill="#FFFFFF" mask="url(#mask-2)"></path>
                </g>
            </g>
        </g>
    </g>
</svg>