<?xml version="1.0" standalone="no"?><!DOCTYPE svg PUBLIC "-//W3C//DTD SVG 1.1//EN" "http://www.w3.org/Graphics/SVG/1.1/DTD/svg11.dtd"><svg t="1495444770798" class="icon" style="" viewBox="0 0 1024 1024" version="1.1" xmlns="http://www.w3.org/2000/svg" p-id="4385" xmlns:xlink="http://www.w3.org/1999/xlink" width="36" height="36"><defs><style type="text/css"></style></defs><path d="M681.27 375.77C679.74 372.57 678.2 369.37 676.67 366.17 674.67 363.34 671.83 361.23 670.21 357.94 670.06 357.94 669.91 357.94 669.75 357.94 669.75 357.79 669.75 357.63 669.75 357.48 672.28 356.93 674.67 356.51 678.05 356.57 679.71 358.16 682.25 359.24 683.57 361.14 684.56 362.56 684.73 364.06 685.88 365.26 685.89 370.13 684.59 373.32 681.73 375.31 681.58 375.47 681.42 375.62 681.27 375.77ZM887.65 581.52C880.02 576.72 871.17 573.98 863.24 569.18 858.78 566.48 854.5 563.15 850.34 560.03 846.53 557.18 842.27 551.75 839.74 547.69 838.43 545.57 838.17 543.01 836.52 541.29 837.01 537.55 841.8 537.52 844.81 536.26 855.39 531.83 867.77 530.33 883.97 530.77 883.47 526.64 873.42 521.63 870.15 519.34 863.61 514.77 856.85 509.8 849.88 505.62 846.23 503.44 839.91 501.75 836.06 500.14 830.56 497.83 818.46 495.6 815.33 491.45 809.37 483.55 805.26 473.97 801.05 464.47 796.82 454.96 791.47 444.94 787.22 435.21 785.12 430.39 784.09 426.04 781.7 421.49 766.85 393.24 745.14 369.55 718.59 352.91 709.87 347.45 700.27 342.42 689.56 339.19 683.5 337.37 676.24 338.39 669.75 336.91 668.37 336.91 666.99 336.91 665.61 336.91 661.98 335.85 658.94 332.03 655.93 330.05 649.68 325.93 643.51 323.03 636.13 319.99 633.34 318.84 625.9 316.12 623.23 318.16 621.66 318.67 620.96 319.33 620.46 320.9 618.9 323.24 620.33 326.87 621.38 329.13 624.34 335.52 628.62 339.4 632.44 344.68 635.89 349.44 640.09 354.87 642.58 360.23 647.77 371.44 650.08 383.88 655.01 394.98 656.91 399.23 659.64 404.09 662.38 407.78 664.6 410.76 668.56 413.02 669.75 416.92 672.26 420.84 666.06 434.18 664.69 438.41 659.38 454.78 660.5 477.68 666.53 491.91 668.91 497.53 671.17 504.09 677.59 505.62 678.06 505.26 677.7 505.45 678.51 505.17 679.87 494.21 680.35 483.65 684.03 474.99 686.34 469.57 690.73 465.86 693.71 461.27 695.9 462.52 695.88 466.17 696.93 468.59 699.65 474.85 702.46 481.64 705.69 487.79 712.45 500.68 719.86 513.06 728.26 524.37 731.24 528.39 735.25 532.75 738.85 536.26 740.39 537.75 742.26 538.52 743.46 540.37 743.62 540.37 743.77 540.37 743.92 540.37 743.92 540.52 743.92 540.68 743.92 540.83 737.73 538.73 733.97 532.53 729.18 528.94 719.95 522.03 709.06 511.77 702.92 501.97 700.16 496.48 697.39 490.99 694.63 485.51 694.63 485.35 694.63 485.2 694.63 485.05 693.48 486.58 693.84 488.25 693.25 490.54 690.64 500.6 692.68 512 683.57 515.68 673.17 519.89 665.6 508.91 662.38 503.79 651.91 487.12 649.2 459.11 656.4 436.58 657.99 431.58 658.15 425.44 661 421.49 660.54 417.94 657.63 416.93 655.93 414.64 653.17 410.89 650.75 406.48 648.56 402.29 644.23 394.01 641.32 384.27 637.97 375.31 636.61 371.68 636.33 368.23 634.74 364.8 632.32 359.57 627.99 354.36 624.61 349.71 619.79 343.08 606.31 330.32 611.71 317.25 620.27 296.53 649.91 312.29 661.46 319.53 664.36 321.35 667.58 325.11 670.68 326.39 675.74 326.7 680.81 327 685.88 327.3 695.32 329.53 704.26 331.23 711.68 335.53 746.56 355.79 769.07 376.39 789.99 410.52 794.35 417.63 796.63 425.45 800.12 433.38 805.25 445.01 810.92 457.08 816.71 468.13 819.47 473.41 821.42 479.15 825 483.68 826.51 485.59 830.54 486.19 832.83 487.34 839.65 490.75 847.59 493.36 854.02 497.39 865.62 504.66 876.87 513.37 887.19 522.08 891.13 525.42 893.71 530.29 897.33 533.97 897.33 534.58 897.33 535.19 897.33 535.8 894.1 536.71 890.88 537.63 887.65 538.54 880.5 540.38 874.31 539.9 867.38 541.74 863.26 542.84 858.03 544.45 853.56 544.95 853.72 545.1 853.87 545.25 854.02 545.4 856.65 552.68 870.76 558.74 877.06 563.24 884.96 568.86 892.39 575.64 898.25 583.35 900.24 585.33 902.24 587.31 904.24 589.3 905.6 591.25 905.98 593.82 907.46 595.7 907.46 595.85 907.46 596 907.46 596.15 904.64 595.16 903.18 592.7 901.01 591.12 896.62 587.93 892.15 584.36 887.65 581.52ZM636.73 559.92 686.76 559.92C689.3 559.92 691.58 560.09 694.12 560.43 716.22 563.45 727.39 573.03 727.39 588.83L727.39 651C727.39 663.81 722.65 670.67 711.71 675.14L737.67 698.4 707.07 698.4 686.07 679.58 664.92 680.91 636.73 680.91C631.91 680.91 626.83 680.24 621.24 678.72 604.48 674.19 596.35 665.45 596.35 651L596.35 588.83C596.35 573.03 607.53 563.45 629.62 560.43 631.91 560.09 634.45 559.92 636.73 559.92ZM624.8 649.49C624.8 650.33 625.05 651.17 625.31 652.17 626.83 659.4 633.69 663.43 644.1 663.43L668.04 663.43 646.05 643.72 676.65 643.72 695.83 660.91C699.37 659.04 701.7 656.18 702.51 652.51 702.76 651.67 702.76 650.83 702.76 649.99L702.76 590.34C702.76 589.67 702.76 588.83 702.51 587.99 700.99 581.26 694.13 577.4 683.97 577.4L644.1 577.4C632.42 577.4 624.8 582.44 624.8 590.34L624.8 649.49ZM502.75 577.31C493.37 578.14 490.58 579.65 489.31 585.02 489.06 585.86 489.06 586.53 489.06 587.2L489.06 599.11C489.06 599.94 489.06 600.61 489.31 601.45 490.58 608.5 495.65 611.68 506.29 611.68L538.22 611.68C546.08 611.68 554.19 613.02 560.78 615.54 573.2 620.23 579.53 627.28 579.53 634.82L579.53 653.94C579.53 663.16 573.96 670.2 562.55 675.4 555.71 678.59 547.09 680.43 538.22 680.43L462.45 680.43 462.45 662.99 535.18 662.99C536.2 662.99 536.96 662.83 537.97 662.83 543.04 662.49 546.84 661.15 549.12 659.14 551.66 657.12 552.92 654.78 552.92 652.93L552.92 637.67C552.92 636 552.42 634.49 550.9 632.98 548.36 629.96 544.81 628.45 536.45 627.78 535.69 627.61 534.68 627.61 533.66 627.61L506.29 627.61C503.76 627.61 501.22 627.44 498.69 627.28 476.14 624.93 462.7 614.87 462.7 603.13L462.7 587.87C462.7 574.46 469.55 566.74 485.26 561.88 490.33 560.37 495.9 559.7 506.55 559.7L580.55 559.7 580.55 577.14 505.28 577.14C504.52 577.14 503.51 577.31 502.75 577.31ZM400.43 717 317.21 717 317.21 699.4C317.35 699.4 400.36 699.42 400.57 699.4 417.54 697.62 415.53 689.25 415.53 686.43L415.53 679.57 359.51 679.57C333.45 679.33 316.85 668.04 316.65 655.06 316.63 653.85 317.21 596.92 316.63 596.35L342.98 596.35 342.98 653.26C342.74 656.35 343.98 663.61 358.42 663.84 365.78 663.95 415.27 663.84 415.73 663.84L415.73 596.08 442.14 596.08C442.26 596.08 442.11 688.48 442.11 688.87 442.26 711.67 413.62 716.61 400.43 717ZM268.36 577.14 227.56 667.19C222.75 678.09 216.41 681.94 203.49 681.94 190.56 681.94 183.97 678.09 179.16 667.19L138.36 577.14 138.36 680.43 112 680.43 112 577.31C112 567.24 116.05 562.38 124.42 559.87 144.44 553.66 158.12 559.03 163.95 572.44L202.73 661.32 242.77 572.44C248.85 559.03 262.28 553.66 282.3 559.87 290.66 562.38 294.72 567.24 294.72 577.31L294.72 680.43 268.36 680.43 268.36 577.14ZM770.31 649.91C770.31 659.14 776.13 662.99 791.59 662.99L860.78 662.99 860.78 680.43 792.1 680.43C789.57 680.43 787.03 680.27 784.5 680.1 757.38 678.09 743.95 668.02 743.95 650.08L743.95 559.7 770.31 559.7 770.31 649.91ZM892.57 643.22C902.83 643.22 912 650.98 912 662.5 912 674.01 902.83 681.78 892.57 681.78 882.32 681.78 873.15 674.01 873.15 662.5 873.15 650.98 882.32 643.22 892.57 643.22ZM892.57 677.77C900.91 677.77 907.65 671.24 907.65 662.5 907.65 653.76 900.91 647.23 892.57 647.23 884.13 647.23 877.5 653.76 877.5 662.5 877.5 671.24 884.13 677.77 892.57 677.77ZM901.79 657.82C901.79 661.83 899.2 663.48 895.79 663.84L902.16 673.5 897.81 673.5 892 663.99 888.53 663.99 888.53 673.5 884.81 673.5 884.81 651.5 893.46 651.5C898.95 651.5 901.79 653.35 901.79 657.82ZM888.53 654.58 888.53 660.91 892.52 660.91C895.32 660.91 897.75 660.65 897.75 657.56 897.75 654.99 895.06 654.58 892.83 654.58L888.53 654.58Z" p-id="4386"></path></svg>