<?xml version="1.0" standalone="no"?><!DOCTYPE svg PUBLIC "-//W3C//DTD SVG 1.1//EN" "http://www.w3.org/Graphics/SVG/1.1/DTD/svg11.dtd"><svg t="1495444478581" class="icon" style="" viewBox="0 0 1024 1024" version="1.1" xmlns="http://www.w3.org/2000/svg" p-id="2762" xmlns:xlink="http://www.w3.org/1999/xlink" width="36" height="36"><defs><style type="text/css"></style></defs><path d="M449.460642 529.558911l58.802244 0-31.033807-50.635237-57.165977 91.469248-26.13524 0 69.415976-109.435435c3.269463-4.084015 8.170077-7.350408 13.885242-7.350408 4.900613 0 9.801227 3.266393 13.06762 7.350408l70.234621 109.435435-26.13524 0L522.146081 549.974893l-60.434417 0L449.460642 529.558911 449.460642 529.558911zM719.783347 549.974893l0-94.734618-22.051225 0 0 103.718223c0 3.267417 0.816598 5.717212 3.266393 8.167007 1.633197 1.633197 4.900613 3.267417 8.167007 3.267417l100.45183 0 13.066597-20.418029L719.783347 549.974893 719.783347 549.974893zM353.910449 532.825304c21.234627 0 39.200814-17.149589 39.200814-39.200814 0-21.234627-17.966187-38.384216-39.200814-38.384216l-96.368838 0 0 115.152647 22.049179 0 0-94.735641 72.685439 0c10.616802 0 18.782785 8.165983 18.782785 17.96721 0 10.617825-8.167007 18.783809-18.782785 18.783809l-62.067614 0 66.152653 57.983599 31.849382 0-44.100404-37.567617L353.910449 532.824281 353.910449 532.825304zM121.156384 570.392922c-31.850405 0-57.167001-26.13524-57.167001-57.983599 0-31.851429 25.316595-57.169047 57.167001-57.169047l66.968228 0c31.849382 0 57.165977 25.316595 57.165977 57.169047 0 31.849382-25.316595 57.983599-57.165977 57.983599L121.156384 570.392922 121.156384 570.392922zM186.490392 549.974893c20.418029 0 37.567617-17.150612 37.567617-37.566594 0-20.418029-17.149589-36.751019-37.567617-36.751019L122.790604 475.65728c-20.418029 0-37.567617 16.334014-37.567617 36.751019 0 20.415982 17.150612 37.566594 37.567617 37.566594L186.490392 549.974893 186.490392 549.974893zM606.263897 570.392922c-31.849382 0-57.168024-26.13524-57.168024-57.983599 0-31.851429 25.318642-57.169047 57.168024-57.169047l79.218226 0-13.066597 20.417005-64.518433 0c-20.415982 0-37.566594 16.334014-37.566594 36.751019 0 20.415982 17.149589 37.566594 37.566594 37.566594l79.218226 0-12.248975 20.418029L606.263897 570.392922 606.263897 570.392922zM876.585579 549.974893c-17.150612 0-31.033807-11.4334-35.933397-26.949792l94.733595 0 13.065574-20.415982L840.652182 502.609119c4.89959-15.517415 18.782785-26.951839 35.933397-26.951839l65.336054 0 13.065574-20.417005-80.034824 0c-31.033807 0-57.168024 25.316595-57.168024 57.169047 0 31.849382 26.133194 57.983599 57.168024 57.983599l68.601424 0 13.066597-20.418029L876.585579 549.974893 876.585579 549.974893z" p-id="2763" fill="#ffffff"></path></svg>