<?xml version="1.0" encoding="UTF-8"?>
<svg width="17px" height="17px" viewBox="0 0 17 17" version="1.1" xmlns="http://www.w3.org/2000/svg" xmlns:xlink="http://www.w3.org/1999/xlink">
    <!-- Generator: Sketch 48.1 (47250) - http://www.bohemiancoding.com/sketch -->
    <title>能力概览</title>
    <desc>Created with Sketch.</desc>
    <defs></defs>
    <g id="大数据" stroke="none" stroke-width="1" fill="none" fill-rule="evenodd" transform="translate(-25.000000, -448.000000)">
        <g id="能力概览" transform="translate(25.000000, 448.000000)" fill="#FFFFFF" fill-rule="nonzero">
            <path d="M15.7338217,9.98388469 C15.6923077,9.98388469 11.0634921,2.20468736 11.0634921,2.20468736 C11.3333333,1.97152341 11.4163614,1.71716273 11.4163614,1.33562172 C11.4163614,0.614933136 10.8559219,0.0214248924 10.1501832,0.000228169401 C8.78021978,-0.0209685536 8.73870574,1.44160533 8.78021978,1.5051955 L3.59096459,3.47649074 C3.36263736,3.13734317 3.03052503,3.01016283 2.61538462,3.01016283 C1.88888889,3.01016283 1.30769231,3.60367108 1.30769231,4.34555638 C1.30769231,4.93906462 1.61904762,5.44778598 2.13797314,5.61735976 L0.954822955,10.7045733 C0.373626374,10.8317536 0,11.3616717 0,11.9975734 C0,12.7394587 0.581196581,13.3329669 1.30769231,13.3329669 C1.7020757,13.3329669 2.05494505,13.1633931 2.32478632,12.866639 L7.18192918,15.622213 L7.18192918,15.6646065 C7.18192918,16.4064918 7.76312576,17 8.48962149,17 C9.27838828,17 9.7973138,16.2793114 9.71428571,15.5798196 L14.8827839,12.485098 C15.1111111,12.6546718 15.4017094,12.6758685 15.6923077,12.6758685 C16.4188034,12.6758685 17,12.0823603 17,11.340475 C16.979243,10.6621798 16.3772894,9.96268797 15.7338217,9.98388469 Z M10.0671551,0.636129859 C10.4200244,0.636129859 10.7106227,0.932883981 10.7106227,1.29322827 C10.7106227,1.65357256 10.4200244,1.95032668 10.0671551,1.95032668 C9.71428571,1.95032668 9.42368742,1.65357256 9.42368742,1.29322827 C9.42368742,0.954080704 9.71428571,0.636129859 10.0671551,0.636129859 Z M9.05006105,7.54626155 L6.68376068,6.14727783 L9.71428571,2.58622837 C9.75579976,2.58622837 9.65201465,2.58622837 9.71428571,2.58622837 L9.05006105,7.54626155 Z M9.61050061,8.6060977 L13.6373626,10.9165405 L9.31990232,11.0861143 L9.61050061,8.6060977 Z M8.9047619,8.24575341 L8.61416361,11.1920979 L6.51770452,11.2980815 L5.06471306,8.22455669 L6.28937729,6.69839263 L8.9047619,8.24575341 Z M9.02930403,2.11990047 C9.07081807,2.18349064 9.13308913,2.22588408 9.15384615,2.28947425 L6.16483516,5.82932699 L3.84004884,4.47273672 C3.84004884,4.40914655 3.84004884,4.34555638 3.84004884,4.30316293 C3.84004884,4.23957277 3.84004884,4.13358915 3.7985348,4.06999898 L9.02930403,2.11990047 Z M3.65323565,5.04504824 L5.79120879,6.27445817 L4.71184371,7.54626155 L3.61172161,5.08744168 L3.65323565,5.04504824 Z M1.90964591,4.30316293 C1.90964591,3.94281864 2.2002442,3.64606452 2.55311355,3.64606452 C2.90598291,3.64606452 3.1965812,3.94281864 3.1965812,4.30316293 C3.1965812,4.66350723 2.90598291,4.96026135 2.55311355,4.96026135 C2.2002442,4.96026135 1.90964591,4.68470395 1.90964591,4.30316293 Z M1.26617827,12.6334751 C0.913308913,12.6334751 0.622710623,12.3367209 0.622710623,11.9763767 C0.622710623,11.6160324 0.913308913,11.3192782 1.26617827,11.3192782 C1.61904762,11.3192782 1.90964591,11.6160324 1.90964591,11.9763767 C1.90964591,12.3367209 1.61904762,12.6334751 1.26617827,12.6334751 Z M1.99267399,10.8317536 C1.88888889,10.7681634 1.80586081,10.72577 1.66056166,10.6621798 L2.84371184,5.57496631 C2.94749695,5.53257287 3.00976801,5.57496631 3.11355311,5.53257287 L4.2967033,8.09737635 L1.99267399,10.8317536 Z M2.40781441,11.2980815 L4.54578755,8.69088459 L5.72893773,11.3828684 L2.47008547,11.5312455 C2.40781441,11.4040651 2.47008547,11.4040651 2.40781441,11.2980815 Z M7.30647131,14.8803277 L2.65689866,12.2519341 L6.04029304,12.0611635 L7.28571429,14.7955408 C7.26495726,14.859131 7.32722833,14.7955408 7.30647131,14.8803277 Z M6.76678877,12.0399668 L8.48962149,11.9339832 L8.1990232,14.3080162 C8.07448107,14.3504096 7.97069597,14.3716064 7.86691087,14.4139998 L6.76678877,12.0399668 Z M8.44810745,16.3005081 C8.0952381,16.3005081 7.8046398,16.003754 7.8046398,15.6434097 C7.8046398,15.2830654 8.0952381,14.9863113 8.44810745,14.9863113 C8.8009768,14.9863113 9.09157509,15.2830654 9.09157509,15.6434097 C9.09157509,16.003754 8.8009768,16.3005081 8.44810745,16.3005081 Z M9.50671551,14.9015244 C9.34065934,14.6683605 9.11233211,14.47759 8.82173382,14.3716064 L9.15384615,11.9339832 L14.3431013,11.6584258 C14.3846154,11.7644094 14.4053724,11.8491963 14.4468864,11.9551799 L9.50671551,14.9015244 Z M14.4676435,10.6621798 L9.67277167,7.8642124 L10.3577534,2.6074251 C10.3992674,2.6074251 10.4200244,2.6074251 10.4200244,2.56503165 L14.9450549,10.1322618 C14.7582418,10.2382454 14.5714286,10.4290159 14.4676435,10.6621798 Z M15.6092796,11.9763767 C15.2564103,11.9763767 14.965812,11.6796225 14.965812,11.3192782 C14.965812,10.958934 15.2564103,10.6621798 15.6092796,10.6621798 C15.962149,10.6621798 16.2527473,10.958934 16.2527473,11.3192782 C16.2735043,11.6584258 15.982906,11.9763767 15.6092796,11.9763767 Z" id="Shape"></path>
        </g>
    </g>
</svg>