<?xml version="1.0" standalone="no"?><!DOCTYPE svg PUBLIC "-//W3C//DTD SVG 1.1//EN" "http://www.w3.org/Graphics/SVG/1.1/DTD/svg11.dtd"><svg t="1494672002257" class="icon" style="" viewBox="0 0 1024 1024" version="1.1" xmlns="http://www.w3.org/2000/svg" p-id="2345" xmlns:xlink="http://www.w3.org/1999/xlink" width="200" height="200"><defs><style type="text/css"></style></defs><path d="M401.690017 535.586689c0-0.818627 0-1.637254 0-2.455881C401.587689 534.461077 401.587689 535.586689 401.690017 535.586689zM401.690017 528.321375c0 0-0.102328 0-0.102328 0 0.102328 1.637254 0.102328 3.274508 0.102328 4.809433C401.690017 531.084241 401.792345 528.321375 401.690017 528.321375zM660.580793 247.736984c13.20036 48.605976-2.865194 99.872489-23.22854 130.468672-5.525732 8.390926-12.58639 15.553912-18.930748 23.023883-6.856001 7.981613-24.661137 24.558809-34.791646 28.549615-0.204657 0.306985-3.683821 1.841911-3.888478 2.046567 28.958929 0 57.917857 0 86.876786 0 8.493255-6.549016 15.963226-21.488958 21.693614-31.005496 26.810033-44.001199 40.215049-115.324073 20.568002-177.02808-23.944839-75.211352-79.611472-129.138403-156.97172-152.5716-28.447287-8.595583-71.220546-14.735285-107.34246-7.981613-92.709503 17.293495-154.618167 68.560008-185.725992 145.408614-5.832717 14.325972-9.311882 29.982212-12.58639 46.661737-12.484061 62.113321 13.098031 127.603478 38.168482 162.190467 7.060658 9.823524 15.553912 18.21445 23.22854 27.321675 9.107225 10.949136 20.977316 19.647047 32.540422 28.140302 3.172179 2.353553 11.460777 4.707105 14.530629 7.162986 0.306985 0.409313 0.61397 0.716299 0.818627 1.125612-10.846807 4.297792-21.591286 8.493255-32.438093 12.791046-17.805136 7.572299-35.098631 16.679524-50.959528 26.503048-75.927651 46.764065-128.831418 112.35655-163.418407 200.051964-6.958329 17.702808-10.335165 36.326571-15.04227 56.382932-8.083941 34.484661-6.958329 77.667233-6.958329 120.133507 0 18.82842-1.944239 39.805736 6.344359 50.345558 12.58639 15.860897 52.903767 10.846807 81.248726 10.846807 74.802039 0 149.706406 0 224.508444 0 0-19.340062 2.967523-33.768362 2.967523-53.108424-84.318577 0-179.790946 0-264.007195 0 0.102328-38.577796-6.958329-73.574098 0-105.602878 23.126212-106.11452 93.323474-187.977216 175.18617-236.07155 17.191166-10.130509 36.4289-18.112122 56.178275-25.582093 10.846807-3.172179 21.693614-6.446687 32.540422-9.618867-1.125612-28.037973-8.083941-61.806336-8.083941-89.12801-44.001199-24.763466-74.495053-55.154992-91.072249-106.012191-4.911762-15.04227-10.130509-41.44299-6.446687-61.601679 1.432597-8.390926 2.865194-16.679524 4.297792-25.070451 4.809433-16.577196 10.539822-31.926451 18.930748-45.22914 25.275107-40.112721 66.513441-62.931948 116.75667-77.462576 11.665434-3.376836 22.409913-8.18627 36.4289-10.335165 5.321075 0.102328 10.64215 0.204657 15.860897 0.306985 5.832717 0.409313 11.563106 0.818627 17.395823 1.125612 14.4283 2.558209 26.400719 10.232837 37.963825 14.632957C599.593085 150.832018 644.105926 186.851604 660.580793 247.736984zM927.862496 701.256321c0-73.062456 0-146.022584 0-219.08504-140.292195 0-280.686719 0-420.978915 0 0 157.58569 0.409313 475.826921 0.409313 475.826921s146.738883 0 211.205756 0c0 0 102.123713 1.125612 105.602878 0 6.958329 0 105.602878 0 105.602878 0S927.862496 743.210952 927.862496 701.256321zM877.005296 905.196762 718.498651 905.196762 560.094334 905.196762 560.094334 535.586689 877.005296 535.586689 877.005296 905.196762zM824.203857 587.67183c-70.29959 0-140.701509 0-211.103428 0 0 18.112122 0 36.121915 0 54.234036 70.29959 0 140.701509 0 211.103428 0C824.203857 623.896073 824.203857 605.783951 824.203857 587.67183zM824.203857 692.865394c-70.29959 0-140.701509 0-211.103428 0 0 18.112122 0 36.121915 0 54.234036 70.29959 0.102328 140.701509 0.306985 211.103428 0.409313C824.203857 729.294294 824.203857 711.079844 824.203857 692.865394z" p-id="2346" fill="#ffffff"></path></svg>