<?xml version="1.0" encoding="UTF-8"?>
<svg width="18px" height="20px" viewBox="0 0 18 20" version="1.1" xmlns="http://www.w3.org/2000/svg" xmlns:xlink="http://www.w3.org/1999/xlink">
    <!-- Generator: Sketch 48.1 (47250) - http://www.bohemiancoding.com/sketch -->
    <title>计算资源</title>
    <desc>Created with Sketch.</desc>
    <defs></defs>
    <g id="大数据" stroke="none" stroke-width="1" fill="none" fill-rule="evenodd" transform="translate(-25.000000, -197.000000)">
        <g id="计算资源" transform="translate(25.000000, 197.000000)" fill="#FFFFFF" fill-rule="nonzero">
            <polygon id="Shape" points="2 2 3 2 3 4 2 4 2 2"></polygon>
            <polygon id="Shape" points="4 2 5 2 5 4 4 4"></polygon>
            <path d="M13,3 C13,3.55228475 13.4477153,4 14,4 C14.5522847,4 15,3.55228475 15,3 C15,2.44771525 14.5522847,2 14,2 C13.4477153,2 13,2.44771525 13,3 Z" id="Shape"></path>
            <path d="M17.0068966,0 L0.993103448,0 C0.434482759,0 0,0.476534296 0,1.06137184 L0,4.96028881 C0,5.54512635 0.455172414,6 0.993103448,6 L17.0068966,6 C17.5655172,6 18,5.5234657 18,4.96028881 L18,1.06137184 C18,0.476534296 17.5448276,0 17.0068966,0 Z M17.1517241,4.96028881 C17.1517241,5.04693141 17.0896552,5.11191336 17.0068966,5.11191336 L0.993103448,5.11191336 C0.910344828,5.11191336 0.848275862,5.04693141 0.848275862,4.96028881 L0.848275862,1.06137184 C0.848275862,0.974729242 0.910344828,0.909747292 0.993103448,0.909747292 L17.0068966,0.909747292 C17.0896552,0.909747292 17.1517241,0.974729242 17.1517241,1.06137184 L17.1517241,4.96028881 Z" id="Shape"></path>
            <polygon id="Shape" points="2 9 3 9 3 11 2 11 2 9"></polygon>
            <polygon id="Shape" points="4 9 5 9 5 11 4 11 4 9"></polygon>
            <path d="M13,10 C13,10.5522847 13.4477153,11 14,11 C14.5522847,11 15,10.5522847 15,10 C15,9.44771525 14.5522847,9 14,9 C13.4477153,9 13,9.44771525 13,10 Z" id="Shape"></path>
            <path d="M17.0068966,7 L0.993103448,7 C0.434482759,7 0,7.47826087 0,8.04347826 L0,11.9565217 C0,12.5434783 0.455172414,13 0.993103448,13 L17.0068966,13 C17.5655172,13 18,12.5217391 18,11.9565217 L18,8.04347826 C18,7.47826087 17.5448276,7 17.0068966,7 Z M17.1517241,11.9565217 C17.1517241,12.0434783 17.0896552,12.1086957 17.0068966,12.1086957 L0.993103448,12.1086957 C0.910344828,12.1086957 0.848275862,12.0434783 0.848275862,11.9565217 L0.848275862,8.04347826 C0.848275862,7.95652174 0.910344828,7.89130435 0.993103448,7.89130435 L17.0068966,7.89130435 C17.0896552,7.89130435 17.1517241,7.95652174 17.1517241,8.04347826 L17.1517241,11.9565217 Z" id="Shape"></path>
            <polygon id="Shape" points="2 16 3 16 3 18 2 18 2 16"></polygon>
            <polygon id="Shape" points="4 16 5 16 5 18 4 18"></polygon>
            <path d="M13,17 C13,17.5522847 13.4477153,18 14,18 C14.5522847,18 15,17.5522847 15,17 C15,16.4477153 14.5522847,16 14,16 C13.4477153,16 13,16.4477153 13,17 Z" id="Shape"></path>
            <path d="M17.0068966,14 L0.993103448,14 C0.434482759,14 0,14.4782609 0,15.0434783 L0,18.9565217 C0,19.5434783 0.455172414,20 0.993103448,20 L17.0068966,20 C17.5655172,20 18,19.5217391 18,18.9565217 L18,15.0434783 C18,14.4782609 17.5448276,14 17.0068966,14 Z M17.1517241,18.9565217 C17.1517241,19.0434783 17.0896552,19.1086957 17.0068966,19.1086957 L0.993103448,19.1086957 C0.910344828,19.1086957 0.848275862,19.0434783 0.848275862,18.9565217 L0.848275862,15.0434783 C0.848275862,14.9782609 0.910344828,14.9130435 0.993103448,14.9130435 L17.0068966,14.9130435 C17.0896552,14.9130435 17.1517241,14.9782609 17.1517241,15.0652174 L17.1517241,18.9565217 Z" id="Shape"></path>
        </g>
    </g>
</svg>