<?xml version="1.0" encoding="UTF-8" standalone="no"?>
<svg width="31px" height="26px" viewBox="0 0 31 26" version="1.1" xmlns="http://www.w3.org/2000/svg" xmlns:xlink="http://www.w3.org/1999/xlink">
    <!-- Generator: Sketch 43.1 (39012) - http://www.bohemiancoding.com/sketch -->
    <title>接口</title>
    <desc>Created with Sketch.</desc>
    <defs></defs>
    <g id="Page-1" stroke="none" stroke-width="1" fill="none" fill-rule="evenodd">
        <g id="Artboard" transform="translate(-90.000000, -802.000000)" fill="#FFFFFF">
            <path d="M90,828 L121,828 L121,802 L90,802 L90,828 Z M91.7222295,826.266655 L119.277771,826.266655 L119.277771,803.733301 L91.7222295,803.733301 L91.7222295,826.266655 Z M93.4445025,805.46669 L93.4445025,821.066664 L98.6111474,821.066664 L98.6111474,824.533398 L112.388896,824.533398 L112.388896,821.066664 L117.555541,821.066664 L117.555541,805.46669 L93.4445025,805.46669 Z M115.833312,807.200035 L115.833355,807.200035 L115.833312,807.200035 L115.833312,819.333363 L110.66671,819.333363 L110.66671,822.800053 L100.333333,822.800053 L100.333333,819.333363 L95.1666449,819.333363 L95.1666449,807.200035 L115.833312,807.200035 Z M112.388896,815.86676 L114.111082,815.86676 L114.111082,808.93338 L112.388896,808.93338 L112.388896,815.86676 Z M107.222208,815.86676 L108.944437,815.86676 L108.944437,808.93338 L107.222208,808.93338 L107.222208,815.86676 Z M102.055563,815.86676 L103.777792,815.86676 L103.777792,808.93338 L102.055563,808.93338 L102.055563,815.86676 Z M96.8889179,815.86676 L98.6111474,815.86676 L98.6111474,808.93338 L96.8889179,808.93338 L96.8889179,815.86676 Z" id="接口"></path>
        </g>
    </g>
</svg>