<?xml version="1.0" standalone="no"?><!DOCTYPE svg PUBLIC "-//W3C//DTD SVG 1.1//EN" "http://www.w3.org/Graphics/SVG/1.1/DTD/svg11.dtd"><svg t="1494671989586" class="icon" style="" viewBox="0 0 1024 1024" version="1.1" xmlns="http://www.w3.org/2000/svg" p-id="1643" xmlns:xlink="http://www.w3.org/1999/xlink" width="200" height="200"><defs><style type="text/css"></style></defs><path d="M923.136 208.896H100.864c-36.864 0-66.56 29.696-66.56 66.56v372.736c0 36.864 29.696 66.56 66.56 66.56h822.784c36.864 0 66.56-29.696 66.56-66.56V275.456c-0.512-36.864-30.208-66.56-67.072-66.56z m15.36 438.784c0 8.704-6.656 15.36-15.36 15.36h-72.704v-109.568c0-14.336-11.264-25.6-25.6-25.6s-25.6 11.264-25.6 25.6v109.568h-75.776v-72.704c0-14.336-11.264-25.6-25.6-25.6s-25.6 11.264-25.6 25.6v72.704h-75.776v-72.704c0-14.336-11.264-25.6-25.6-25.6s-25.6 11.264-25.6 25.6v72.704H470.016v-72.704c0-14.336-11.264-25.6-25.6-25.6s-25.6 11.264-25.6 25.6v72.704H343.04v-72.704c0-14.336-11.264-25.6-25.6-25.6s-25.6 11.264-25.6 25.6v72.704H216.064v-109.568c0-14.336-11.264-25.6-25.6-25.6s-25.6 11.264-25.6 25.6v109.568H100.864c-8.704 0-15.36-6.656-15.36-15.36V275.456c0-8.704 6.656-15.36 15.36-15.36h822.784c8.704 0 15.36 6.656 15.36 15.36l-0.512 372.224zM833.536 798.208H190.464c-14.336 0-25.6 11.264-25.6 25.6s11.264 25.6 25.6 25.6h642.56c14.336 0 25.6-11.264 25.6-25.6s-11.264-25.6-25.088-25.6z" fill="#ffffff" p-id="1644"></path></svg>