<?xml version="1.0" standalone="no"?><!DOCTYPE svg PUBLIC "-//W3C//DTD SVG 1.1//EN" "http://www.w3.org/Graphics/SVG/1.1/DTD/svg11.dtd"><svg t="1494671961648" class="icon" style="" viewBox="0 0 1024 1024" version="1.1" xmlns="http://www.w3.org/2000/svg" p-id="925" xmlns:xlink="http://www.w3.org/1999/xlink" width="200" height="200"><defs><style type="text/css"></style></defs><path d="M424.448 730.944 424.448 730.944 424.448 599.552 293.056 599.552c-72.576 0-131.392 58.816-131.392 131.392 0 72.576 58.816 131.392 131.392 131.392C365.568 862.336 424.448 803.52 424.448 730.944L424.448 730.944 424.448 730.944zM490.112 730.944c0 108.864-88.192 197.056-197.056 197.056-108.864 0-197.056-88.192-197.056-197.056 0-108.8 88.192-197.056 197.056-197.056l131.392 0 65.664 0 0 65.664L490.112 730.944 490.112 730.944zM599.552 730.944 599.552 599.552l131.392 0c72.512 0 131.328 58.816 131.328 131.392 0 72.576-58.816 131.392-131.328 131.392S599.552 803.52 599.552 730.944L599.552 730.944zM533.888 730.944c0 108.864 88.192 197.056 197.12 197.056 108.8 0 197.056-88.192 197.056-197.056 0-108.8-88.192-197.056-197.056-197.056L599.552 533.888 533.888 533.888l0 65.664L533.888 730.944 533.888 730.944zM424.448 293.056l0 131.392L293.056 424.448c-72.576 0-131.392-58.816-131.392-131.392s58.816-131.392 131.392-131.392C365.568 161.664 424.448 220.544 424.448 293.056L424.448 293.056zM490.112 293.056c0-108.864-88.192-197.056-197.056-197.056C184.192 96 96 184.192 96 293.056c0 108.8 88.192 197.056 197.056 197.056l131.392 0 65.664 0L490.112 424.448 490.112 293.056 490.112 293.056zM599.552 293.056l0 131.392 131.392 0c72.512 0 131.328-58.816 131.328-131.392s-58.816-131.392-131.328-131.392S599.552 220.544 599.552 293.056L599.552 293.056zM533.888 293.056 533.888 293.056c0-108.864 88.192-197.056 197.12-197.056 108.8 0 197.056 88.192 197.056 197.056 0 108.8-88.192 197.056-197.056 197.056L599.552 490.112 533.888 490.112 533.888 424.448 533.888 293.056 533.888 293.056zM533.888 293.056" p-id="926" fill="#ffffff"></path></svg>