<?xml version="1.0" encoding="UTF-8" standalone="no"?>
<svg width="31px" height="27px" viewBox="0 0 31 27" version="1.1" xmlns="http://www.w3.org/2000/svg" xmlns:xlink="http://www.w3.org/1999/xlink">
    <!-- Generator: Sketch 43.1 (39012) - http://www.bohemiancoding.com/sketch -->
    <title>能力</title>
    <desc>Created with Sketch.</desc>
    <defs></defs>
    <g id="Page-1" stroke="none" stroke-width="1" fill="none" fill-rule="evenodd">
        <g id="Artboard" transform="translate(-321.000000, -681.000000)" fill="#1296DB">
            <path d="M341.817224,689.381544 L336.498351,695.826791 L331.179477,689.381544 C330.920793,689.078842 330.472338,689.043832 330.171603,689.302856 C329.870909,689.56188 329.828898,690.019337 330.077193,690.330961 L335.947209,697.443895 C335.956853,697.455481 335.968731,697.463853 335.979079,697.47472 C335.997042,697.494127 336.013308,697.514719 336.033837,697.532393 C336.039797,697.537425 336.046213,697.540681 336.052131,697.545586 C336.065872,697.556452 336.08011,697.565839 336.094348,697.575649 C336.13462,697.604063 336.177624,697.628079 336.222697,697.647402 C336.25407,697.660764 336.285733,697.671123 336.318141,697.679791 C336.331717,697.683427 336.344755,697.68774 336.358496,697.6907 C336.404769,697.700044 336.451374,697.705922 336.498351,697.705922 L336.499013,697.705922 C336.545824,697.705922 336.592594,697.700044 336.638868,697.6907 C336.652444,697.68774 336.665523,697.683427 336.679057,697.679791 C336.727938,697.667022 336.77537,697.648967 336.820443,697.625923 C336.84863,697.611378 336.875698,697.594422 336.902353,697.576029 C336.916881,697.565839 336.931491,697.556621 336.945398,697.545247 C336.951151,697.540512 336.957608,697.537256 336.963195,697.532393 C336.983394,697.514931 336.999287,697.494635 337.016919,697.475734 C337.027597,697.464529 337.039849,697.456031 337.049658,697.443895 L342.919674,690.330961 C343.176329,690.019972 343.137547,689.555326 342.833128,689.293131 C342.528667,689.030978 342.07388,689.070554 341.817224,689.381544 L341.817224,689.381544 Z M350.136625,692.302226 C348.706455,693.866308 346.054965,696.729655 342.984614,700.045385 C341.175564,701.998638 339.367301,703.952651 337.559783,705.907384 C336.986042,706.527207 336.722806,706.527207 336.511388,706.527207 C336.310857,706.527207 336.036238,706.527207 335.464236,705.90751 C333.604277,703.896119 331.747257,701.890182 330.035142,700.040903 C326.899478,696.654138 324.187849,693.725507 322.918559,692.337532 C322.29093,691.429341 322.278554,690.567745 322.891615,689.900776 C323.548175,689.16679 324.943289,687.653447 326.292419,686.189998 C327.358611,685.033438 328.46106,683.837554 329.154416,683.074139 C329.691485,682.483871 330.023801,682.483871 330.223836,682.483871 C330.223836,682.483871 335.487414,682.472793 339.214036,682.472793 C341.899631,682.472793 342.634169,682.478713 342.775762,682.483575 C343.21805,682.499812 343.40484,682.652918 343.867699,683.122806 C345.025071,684.295477 347.575695,687.096668 349.099737,688.770389 C349.592106,689.311059 349.966722,689.722597 350.134763,689.903567 C350.765579,690.624911 350.641328,691.729844 350.136625,692.302226 L350.136625,692.302226 Z M351.199713,688.910641 L351.187379,688.896941 C351.024305,688.72151 350.649772,688.310183 350.155292,687.767273 C348.62409,686.08556 346.060925,683.270881 344.883354,682.077576 C344.408824,681.595976 343.871092,681.050063 342.825761,681.011628 C342.598078,681.003848 341.416616,681 339.213912,681 C335.486089,681 330.220815,681.011078 330.222139,681.011078 C329.682504,681.011078 328.953677,681.131626 328.097909,682.071699 C327.407575,682.83169 326.306988,684.025628 325.2427,685.180328 C323.889969,686.647709 322.491172,688.165069 321.834073,688.899732 C320.743669,690.085721 320.721277,691.747307 321.775383,693.236591 L321.832666,693.307795 C323.090988,694.684099 325.823642,697.635436 328.987617,701.053026 C330.699525,702.902136 332.556379,704.907692 334.415676,706.918491 C335.293008,707.868923 335.941456,708 336.511388,708 C337.080369,708 337.728279,707.869093 338.607515,706.918956 C340.481463,704.891963 342.328839,702.896808 344.031849,701.05755 C347.103732,697.740213 349.75667,694.875133 351.19872,693.297901 C352.130148,692.241973 352.395454,690.264324 351.199672,688.910641 L351.199713,688.910641 Z" id="能力"></path>
        </g>
    </g>
</svg>