<?xml version="1.0" encoding="UTF-8"?>
<svg width="32px" height="32px" viewBox="0 0 32 32" version="1.1" xmlns="http://www.w3.org/2000/svg" xmlns:xlink="http://www.w3.org/1999/xlink">
    <!-- Generator: Sketch 45 (43475) - http://www.bohemiancoding.com/sketch -->
    <title>搜索</title>
    <desc>Created with Sketch.</desc>
    <defs></defs>
    <g id="Page-1" stroke="none" stroke-width="1" fill="none" fill-rule="evenodd">
        <g id="表格样式" transform="translate(-1295.000000, -99.000000)">
            <g id="搜索" transform="translate(1295.000000, 99.000000)">
                <path d="M0,0 L29,0 L29,4.4408921e-16 C30.6568542,-1.33185217e-15 32,1.34314575 32,3 L32,29 L32,29 C32,30.6568542 30.6568542,32 29,32 L0,32 L0,0 Z" id="Rectangle-31-Copy-12" fill="#1C2331"></path>
                <path d="M10.023,14.548 C10.023,11.5 12.502,9.021 15.549,9.021 C18.596,9.021 21.076,11.5 21.076,14.548 C21.076,17.596 18.597,20.075 15.549,20.075 C12.502,20.075 10.023,17.597 10.023,14.548 L10.023,14.548 Z M24.761,23.276 L20.409,18.924 C21.455,17.762 22.099,16.231 22.099,14.549 C22.099,10.938 19.161,8 15.549,8 C11.938,8 9,10.938 9,14.549 C9,18.16 11.938,21.098 15.549,21.098 C17.11,21.098 18.545,20.547 19.67,19.632 L24.039,24 L24.761,23.276 Z" id="Fill-1" fill="#999999"></path>
            </g>
        </g>
    </g>
</svg>